<svg id="Layer_1" data-name="Layer 1" xmlns="http://www.w3.org/2000/svg" viewBox="0 0 1097.67 1260.96"><defs><style>.cls-1{fill:#11161c;}.cls-2{fill:#fff3c2;}.cls-3{fill:#cb5f28;}.cls-4{fill:#fff3c3;}.cls-5{fill:#f2983a;}.cls-6{fill:#fad5a0;}.cls-7{fill:#f7be17;}.cls-8{fill:#fff2c2;}.cls-9{fill:#ec8599;}.cls-10{fill:#92321e;}.cls-11{fill:#fff;}.cls-12{fill:#fefefe;}.cls-13{fill:#fcfcfb;}</style></defs><title>14</title><path class="cls-1" d="M2863.37,711.71c-31.28-6.24-62.88-9.73-94.7-11.57-26.65-1.54-53.3-3.28-79.95-4.79-2.7-.15-2.47-1.13-2.31-3.19a181.8,181.8,0,0,0,.78-22.64c-.79-17.47-6.01-33.79-12.65-49.66-2.32-5.54-.69-7.82,3.59-10.89,44.47-31.84,89.77-62.49,134.82-93.5a31.641,31.641,0,0,0,8.08-7.52,10.724,10.724,0,0,0,.87-11.83,10.532,10.532,0,0,0-9.77-5.94c-6.06-.14-11.77,1.4-17.34,3.51-39.44,14.94-77.96,32.09-116.54,49.08-5.76,2.54-11.48,5.2-17.77,8.06a303.767,303.767,0,0,0,6.8-55.17c.71-22.97-2.23-45.57-6.06-68.14-3.54-20.89-6.75-41.86-13.36-62.07-3.84-11.76-8.01-23.47-17.27-32.36a12.613,12.613,0,0,0-7.29-3.77c-10.98-1.69-21.24.96-31.08,4.79-47.3,18.4-92.14,41.48-133,71.84-2.6,1.93-3.81,3.51-4.97-1.43q-20.43-87.4-41.36-174.71c-1.22-5.13-1.85-10.46-4.5-15.17a14.088,14.088,0,0,0-16.15-6.52c-5.48,1.7-8.48,6.45-8.22,13.18.14,3.69.5,7.38.63,11.08,1.42,40.54,2.91,81.08,4.17,121.62.37,11.8.06,23.63.06,34.23-14.92-37.23-56.34-53.56-89-43.73-18.59,5.59-33.42,16.23-43.63,32.89-10.23,16.69-13.22,34.76-9.5,55.24-1.32-2.24-2-3.29-2.59-4.39-9.89-18.19-19.66-36.44-29.66-54.57-17.28-31.35-34.05-62.99-52.53-93.66-3.4-5.65-7.05-11.16-12.36-15.3-10.51-8.2-24.42-2.75-26.81,10.41-1.22,6.69-.23,13.13,1.65,19.49,12.45,42.28,26.19,84.16,39.61,126.14,5.63,17.64,11.82,35.11,17.75,52.61-1.14.66-1.79.09-2.51-.17a394.4,394.4,0,0,0-71.24-18.12c-13.15-2.09-26.43-2.11-39.59-3.78-20.3-2.57-40.67-3.75-61.16-1.82-13.92,1.31-22.65,7.81-26.71,21.5-4.9,16.57-4.84,33.33-3.31,50.14,2.26,24.87,8.59,48.96,15.01,73.03,11.65,43.61,27.54,85.43,50.89,124.22,1.85,3.08.87,3.54-2.21,3.81-15.54,1.34-31.09,2.67-46.59,4.4-24.12,2.7-47.93,7.54-72.06,10.23-44.16,4.92-87.38,14.39-129.94,27.04-7.21,2.14-12.8,5.57-15.76,12.64v8.71c4.36,6.74,10.82,8.73,18.47,8.47q52.335-1.845,104.68-3.52c17.38-.55,34.76-.85,52.14-1.39q44.145-1.35,88.29-2.91c2.66-.09,3.66.84,4.05,3.36,3.82,25.02,11.74,48.59,25.12,70.19,1.11,1.8,1,2.52-1.03,3.48-6.22,2.97-12.34,6.16-18.43,9.39-1.62.85-2.34.7-3.2-.99-10.84-21.26-27.47-36.5-48.7-47.08-28.53-14.22-58.03-16.99-87.7-5.36-38.79,15.2-65,44.05-82.39,81.25-9.51,20.32-13.43,41.93-14.77,64.34-1.37,22.9-1.77,45.62,2.12,68.28,11.87,68.97,44.9,125.05,102.63,165.34,57.13,39.86,120.4,51.87,188.61,38.95,28.19-5.35,54.5-15.68,79.24-30.12,1.73-1.01,3.24-3.08,5.36.17,9.17,14.01,21.5,24.68,36,32.9,1.61.91,2.93,1.8,3.02,3.91.24,6.01-.71,11.96-5.13,16.07-5.28,4.89-10.94,9.82-17.3,13.03-50.38,25.5-100.35,51.82-151.25,76.27a55.272,55.272,0,0,0-17.77,13.08c-11.97,13.53-16.48,29.17-14.63,47.24,1.97,19.33,12.19,32.5,30.7,37.38a8.5,8.5,0,0,1,4.4,2.65c12.61,13.95,31.75,18.14,49.31,10.48,3.28-1.43,5.26-1.13,8.11.78,19.07,12.81,44.14,9.25,57.07-8.29q28.98-39.3,61.65-75.58c13.34-14.84,26.77-29.59,41.4-43.24,14.06-13.11,21.33-36.46,5.77-55.55-1.64-2-.55-3.08.35-4.6,1.19-2.01,2.58-2.31,4.8-1.5a172.783,172.783,0,0,0,46.52,9.71,159.759,159.759,0,0,0,27.92-.48c-4.05,7.32-5.25,14.77-5.67,22.31-.92,16.58,4.41,30.22,21.3,36.03a1486.013,1486.013,0,0,1,202.03,87.23c12.35,6.42,23.87,14.67,37.46,18.44,19.23,5.33,38.34,5.97,55.63-5.78,6.41-4.36,12.21-8.93,20.33-9.65,2.65-.23,5.32-2.23,7.64-3.9,12.97-9.31,17.87-22.41,18.02-37.98.06-5.75-2.58-10.99-1.38-17.04,3.65-18.41-4.69-36.02-20.78-44.31a231.572,231.572,0,0,0-66.89-22.09c-10.16-1.76-20.52-1.81-30.63-3.53-25.17-4.26-50.2-9.33-75.33-13.81-28.16-5.01-56.03-11.12-83.03-20.68-1.84-.66-4.86-.29-4.66-3.77.18-3.09-.53-6.01,3.07-8.31a145.459,145.459,0,0,0,31.39-27.73c17.11-19.78,28.46-42.5,34.65-68.31a178.1,178.1,0,0,0,35.1,24.2c1.91.99,2.12,2.54,2.61,4.25a68.056,68.056,0,0,0,29.62,39.63c13.93,8.91,28.73,14.18,45.63,11.57,10.07-1.57,19.17-4.87,26.84-11.91,7.41-6.81,18.07-8.67,24.88-16.8,15.37-18.35,12.3-51.08-6.8-67.76-12.44-10.86-26.75-18.04-42.55-22.74-15.23-4.52-30.45-9.38-41.97-21.33a378.239,378.239,0,0,1-30-35.33c-1-1.32-1.83-2.78-2.96-4.52a306.708,306.708,0,0,0,58.9-19.15c2.44-1.09,2.97.13,3.79,1.78a45.606,45.606,0,0,0,13.1,15.86c15.12,11.76,36.21,13.56,51.59,4.38,15.11-9.02,22.81-26.36,19.24-44.84-.8-4.15.19-5.19,3.76-6.6,26.38-10.4,34.76-49.04,15.26-69.73a43.579,43.579,0,0,0-25.81-13.47,50.756,50.756,0,0,0,2.2-6.19c3.92-18.19-9.26-39.99-32.74-40.4-20.25-.35-36.03,9.62-47.37,26.13a78.73,78.73,0,0,1-24.88,23.12,146.332,146.332,0,0,1-29.36,13.15c-19.71,6.59-40.09,10.29-60.54,13.61-2.58.42-4.4.18-5.27-2.96a151.009,151.009,0,0,0-5.16-15.01c-1.14-2.9-.82-4.52,2.15-6.07a116.175,116.175,0,0,0,27.41-20.35,20.008,20.008,0,0,1,5.11-3.57c6.58-3.34,13.25-6.51,19.7-10.09,57.93-32.19,102.57-77.03,130.28-137.77,1.65-3.61,4.08-4.01,7.11-4.29,8.49-.77,16.99-1.42,25.47-2.25,28.18-2.77,56.34-5.62,84.51-8.39,26.09-2.57,52.19-5.03,78.27-7.63,7.22-.72,11.64-5.15,11.95-11.51C2874.63,718.49,2870.36,713.11,2863.37,711.71Zm-684.47,416.8a8.79,8.79,0,0,1-3.66,5.89c-20.66,16.04-44.05,25.41-69.89,28.9-33.42,4.5-65.84.83-96.51-13.41-44.62-20.7-71.9-55.39-81.12-103.9-.73-3.89-1.74-7.88-1.05-12.54,11.76,5.46,23.67,8.82,36.16,8.67,32.88-.39,57.66-16.06,75.98-42.41a112.243,112.243,0,0,0,20.4-67.1c-.05-3.61.95-5.3,4.44-6.63,15.57-5.96,31.02-12.22,46.46-18.52a6.123,6.123,0,0,1,6.49.66c28.99,19.47,61.12,30.85,95.38,36.65a350.7,350.7,0,0,0,38.74,4.85c4.26.24,3.52,2.17,2.61,4.88a590.291,590.291,0,0,1-53.5,115.95A161.887,161.887,0,0,0,2178.9,1128.51Z" transform="translate(-1776.63 -207.538)"/><path class="cls-2" d="M2534.225,881.339c1.321-2.788,2.331-4.708,3.151-6.705.926-2.258.378-4.261-1.929-5.217-2.329-.965-4.592-.466-5.7,2.008-6.329,14.064-16.677,24.92-28.041,34.874-20.716,18.145-45.419,27.435-72.249,31.659a187.567,187.567,0,0,1-73.288-2.574,57.923,57.923,0,0,0-17.21-1.081,473.75,473.75,0,0,1-132.865-9.971,225.466,225.466,0,0,1-68.4-27.4c2.822-2.2,6.128-2.786,9.039-4.142a19.123,19.123,0,0,0,4.99-2.821,3.885,3.885,0,0,0,1.141-3.973c-.412-1.895-2.058-1.071-3.19-1.15a34.435,34.435,0,0,0-15,2.417c-55.068,21.079-109.317,44.194-164.166,65.814q-45.851,18.072-91.688,36.181c-5.028,1.99-10.158.36-15.665,1.212,1.348-4.826,4.919-6.867,8.216-8.929,16.2-10.134,32.887-19.437,49.688-28.526,63.9-34.573,128.35-68.1,193.826-99.617,3.033-1.46,6.132-2.791,9.242-4.08,3.48-1.441,6.1-3.517,4.475-7.66-1.523-3.892-4.735-3.665-8.109-2.566a193.328,193.328,0,0,0-26.9,11.612c-3.31,1.667-4.817,1.022-6.818-2.019-12.095-18.382-19.357-38.611-23.727-60.021-.532-2.6-.033-3.445,2.933-3.716,10.262-.938,20.613.08,30.827-1.6,3.476-.574,6.87-1.379,7.46-5.511.481-3.367-2.977-6.684-7.7-7.192-9.963-1.074-19.925.128-29.88.517q-33.283,1.3-66.556,2.88-72.1,3.336-144.2,6.769c-17.2.815-34.4,1.72-51.607,2.519a35.74,35.74,0,0,1-7.226-.309c-1.836-.292-4.164-.649-4.74-2.779-.611-2.261,1.547-3.349,3.006-4.485a23.086,23.086,0,0,1,8.683-4,893.05,893.05,0,0,1,107.793-20.609c32.539-4.1,64.989-8.9,97.528-13.007,26.974-3.4,53.99-6.586,81.235-6.983,2.725-.04,5.492,0,8.075-1.124,3.635-1.58,4.19-5,1.163-7.619-2.6-2.244-5.817-2.6-9.067-2.533-8.049.163-16.1.277-24.141.686-3.38.172-3.87-.565-3.186-3.974,7.47-37.237,24.36-70.168,45.961-100.91a372.814,372.814,0,0,1,86.044-87.361c3.494-2.548,4.6-2.268,5.791,1.844,2,6.912,4.489,13.685,6.864,20.484a23.374,23.374,0,0,0,4.491,8.447c2.449,2.67,5.565,3.756,8.707,2.334,3.022-1.367,3.029-4.594,2.686-7.617-.769-6.771-3.348-13.039-5.5-19.4-27.216-80.455-54.521-160.879-79.423-242.093-.9-2.929-3.309-6.881.311-8.629,2.975-1.436,5.244,2.417,6.9,4.812,10.22,14.816,19.119,30.46,28.3,45.917q52.647,88.608,98.007,181.165c6.136,12.565,9.566,26.182,13.54,39.509,9.443,31.67,40.254,54.732,77.109,52.269,31.382-2.1,60.247-27.135,66.888-59.481a71.169,71.169,0,0,0-1.03-31.582c-5.982-24.458-14.963-47.974-22.54-71.927-2.285-7.225-2.644-14.5-3.019-21.815-1.359-26.515-2.49-53.043-3.55-79.573-1.375-34.42-2.577-68.847-3.926-103.268-.126-3.215-.656-6.414.2-9.588.2-.719.074-1.737,1.037-1.994,1.286-.343,1.609.847,2.034,1.605a46.855,46.855,0,0,1,4.935,13q19.724,90.588,39.434,181.179c3,13.8,5.93,27.623,8.938,41.424.857,3.93,1.955,7.8,4.644,10.96,1.786,2.1,3.9,3.415,6.779,2.42,2.564-.887,3.735-2.884,4.094-5.455a8.131,8.131,0,0,0,.321-2.857c-1.481-5.857,1.254-5.51,5.637-4.451,48.647,11.75,91.008,34.749,126.318,70.371a216.6,216.6,0,0,1,28.144,34.291c2.743,4.222,5.577,4.5,9.55,2.549,34.405-16.866,69.229-32.842,103.991-48.948,18.62-8.628,37.4-16.923,55.925-25.741,4.847-2.307,8.208,1.71,12.446,1.5,1.229-.06.655,1.457.3,2.329a11.571,11.571,0,0,1-4.684,5.319q-75.649,49.491-151.313,98.963c-3.1,2.019-3.532,3.48-2.122,6.857,9.92,23.759,17.045,48.161,15.608,74.32-.247,4.5-.2,9.111-1.261,13.43s.969,4.482,4.058,4.57c12.713.362,25.425.745,38.134,1.22,33.605,1.255,67.213,2.352,100.655,6.366,14.689,1.763,29.469,2.768,44.208,4.116a10.333,10.333,0,0,1,2.388.249c2.2.764,4.321,1.865,4.223,4.594-.1,2.7-2.513,3.324-4.49,3.563-5.108.619-10.259.881-15.395,1.258q-45.008,3.3-90.015,6.582c-30.012,2.156-60.024,4.33-90.053,6.235-3.58.228-4.854,1.6-6.013,4.638-22.739,59.633-64.09,103.11-118,135.636C2536.232,880.526,2535.676,880.7,2534.225,881.339Z" transform="translate(-1776.63 -207.538)"/><path class="cls-2" d="M2194.1,1181.911c-5.38-15.82-4.327-31.922-2.084-48.071,3.836-27.621,15.879-51.762,30.553-75.107,20.213-32.158,33.967-67.21,43.27-104,.6-2.357,1.081-3.788,3.907-3.629a527.68,527.68,0,0,0,80.537-1.435c.79-.077,1.6-.01,2.861-.01-2.314,4.425-.637,6.065,3.771,7.263,35.936,9.765,72.53,14.783,109.7,13.657,25.648-.778,51.5-1.278,76.5-8.43,26.827-7.677,50.335-21.3,69.34-41.718,8.484-9.116,16.565-18.354,27.377-24.8,10.389-6.191,23.6-4.746,31.381,3.594,6.6,7.066,6.6,19.8.138,26.983-1.535,1.705-3.558,2.187-5.485,2.766-2.435.731-4.414,1.9-4.057,4.526.373,2.757,2.958,2.437,5.044,2.456,4.807.044,9.595-.256,14.378.892,14.671,3.522,22.849,12.241,24.682,27.137,1.5,12.221-1.853,22.88-10.856,31.6a29.391,29.391,0,0,1-18.46,8.292c-2.325.209-5.317-.286-5.434,3.214-.113,3.419,2.837,4.449,5.316,4.274,4.9-.346,5.884,2.367,6.424,6.283,2,14.459-6.664,27.9-21.232,33.442-13.987,5.324-26.144,1.721-37.4-6.922-3.312-2.543-6.348-5.45-9.468-8.236a7.494,7.494,0,0,1-2.727-4.824c-.632-4.354-4.831-6-8.686-3.66-17.679,10.726-37.316,15.236-57.467,17.877-37.42,4.9-74.92,3.175-112.28-.238-44.834-4.1-87.556-16.524-128.234-35.861a32.975,32.975,0,0,0-7.167-2.695c-.755-.163-1.729-.623-2.114.312a2.667,2.667,0,0,0,.192,2.24c1.839,2.408,3.309,5.036,5.7,7.107,21.341,18.509,46.841,28.366,73.734,34.866,37.011,8.945,74.6,13.826,112.754,13.467,2.822-.026,3.659.477,3.993,3.488,3.057,27.577,2.465,55.135-3.42,82.153-4.447,20.416-14.817,38.563-27.636,55.133-1.761,2.277-3.77,4.361-5.664,6.534-24.6,19.425-53.178,28.87-83.738,33.113-42.5,5.9-82.375-3.4-121.024-20.729-18.757-8.413-35.669-19.125-50.2-33.665C2198.182,1187.923,2196.314,1184.81,2194.1,1181.911Z" transform="translate(-1776.63 -207.538)"/><path class="cls-3" d="M1893.734,1156.7c-18.738-19.292-32.662-41.649-42.694-66.55-14.731-36.568-20.441-74.563-18.228-113.814,1.129-20.035,1.8-40.088,8.546-59.406q17.042-48.773,60.134-76.848c34.62-22.562,79.875-17.18,110.425,12.4a101.027,101.027,0,0,1,19.442,25.682c1.11,2.112,1.093,3.177-1.263,4.446-34.124,18.384-69.211,34.934-102.951,54.049a5.814,5.814,0,0,1-1.724.182c2.212-4.568,5.329-7.945,8.334-11.422a43.521,43.521,0,0,0,4.308-5.8c.82-1.35,2.895-2.951,1.163-4.53-1.4-1.273-3.388-.161-4.917.776a68.989,68.989,0,0,0-26.131,29.037,14.906,14.906,0,0,1-6.028,6.556q-23.823,14.253-46.728,29.954c-6.342,4.359-8.617,10.587-6.385,17.1,2.382,6.949,8.518,9.906,15.341,7.234,10.623-4.16,21.232-8.357,31.783-12.7,2.808-1.155,3.965-1.5,4.448,2.409a49.242,49.242,0,0,0,12.155,26.836c1.159,1.321,2.285,2.49,2.258,4.552-.475,35.678,11.434,67.1,32.887,95.213.015,4.077-2.6,6.845-4.988,9.632-8.11,9.468-18.677,15.815-29.3,21.831C1907.692,1156.878,1900.885,1158.94,1893.734,1156.7Z" transform="translate(-1776.63 -207.538)"/><path class="cls-3" d="M2560.647,1306.666c10.062,1.08,19.813,3.8,29.728,5.663,20.5,3.852,41.256,6.355,61.484,11.643,13.21,3.454,26.607,6.393,38.415,13.746,8.651,5.386,15.891,11.954,18.748,23.231-4.267-3.51-7.2-7.269-11.133-9.9-6.077-4.07-12.478-7.267-19.77-8.446-.963-.156-2.092-.489-2.7.387-.687,1-.3,2.141.385,3.149,1.6,2.369,4.08,3.555,6.444,4.94,12.363,7.249,20.853,17.52,24.226,31.634,3.627,15.174-5.046,33.182-18.49,38.564,4.073-20.355-5.6-34.927-20-47.466a69.131,69.131,0,0,0-6.573-4.878,2.521,2.521,0,0,0-3.162-.047c-1.219,1.134-.45,2.469.319,3.459,3.157,4.067,6.591,7.929,9.594,12.1,5.27,7.324,10.377,14.746,11.022,24.247.544,8-2.622,14.314-9.012,18.636-18.907,12.788-38.929,13.771-58.87,3.158q-42.171-22.446-84.874-43.825c-4.6-2.293-9.225-4.547-13.838-6.82a13.216,13.216,0,0,1-2.164-7.773c-.109-17.442,2.919-34.02,15.119-47.438C2534.917,1314.331,2546.509,1307.885,2560.647,1306.666Z" transform="translate(-1776.63 -207.538)"/><path class="cls-3" d="M2226.337,1370.681q-19.411,24.325-38.835,48.641c-7.35,9.165-14.736,18.3-22.244,27.339-6.816,8.2-15.957,12.332-26.3,13.572-9.965,1.2-20.433-6.186-25.906-17.556-7.671-15.934-1.818-35.488,13.675-45.679.672-.442,1.412-.79,2.039-1.285,2.33-1.84,7.661-2.458,5.8-6.07-1.151-2.233-6.537-1.4-9.859-.12a33.531,33.531,0,0,0-15.238,12.264c-8.577,12.092-12.209,25.365-7.921,40.122a22.548,22.548,0,0,0,3.956,8.183c1.909,2.332,1.139,2.915-1.384,3.772-18.254,6.2-35.271-2.474-42.151-21.649-7.777-21.678,2.017-46.9,23.5-60.192,3.537-2.187,7.444-3.768,11.06-5.84,1.31-.75,3.2-1.848,2.738-3.572-.472-1.743-2.518-.869-3.816-.842-11.352.234-20.452,5.906-27.994,13.477-17.094,17.157-24.068,37.28-15.368,61.134.094.256-.071.607-.159,1.21-3.959-2.315-6.427-5.72-8.443-9.545-12.623-23.959-3.825-53.607,19.915-68.017,22.7-13.781,46.376-25.756,69.906-38q6.2-3.228,12.4-6.468c15.632-2.319,30.351,1.285,44.464,7.5,18.593,8.189,30.647,22.268,35.9,42C2226.56,1366.888,2227.261,1368.76,2226.337,1370.681Z" transform="translate(-1776.63 -207.538)"/><path class="cls-4" d="M1893.734,1156.7c15.21.817,26.26-8.182,37.672-16.155,6.909-4.826,12.775-10.747,16.5-18.493,22.285,26.755,50.238,44.524,84.048,52.982,37.726,9.438,74.283,4.315,110.11-9.083a184.583,184.583,0,0,0,30.2-14.714c1.192-.715,2.244-1.878,4.207-1.645-.018,9.762-.348,19.61,2.414,29.15a110.18,110.18,0,0,0,3.82,11.863c1.082,2.593.642,3.746-1.723,5.237-21.952,13.835-45.533,23.859-71.063,28.31-67.962,11.848-130.517-1.7-187.061-41.577A166.677,166.677,0,0,1,1893.734,1156.7Z" transform="translate(-1776.63 -207.538)"/><path class="cls-4" d="M2652.965,1215.662c10.274-26.039-3.148-51.19-21.643-60.489a57.894,57.894,0,0,0-16.362-5.268c-1.962-.337-4.8-.572-5.3,1.915s2.2,2.466,4.031,3.017c20.669,6.2,35.6,30.733,30.458,50.157-3.584,13.541-13.41,20.342-26.367,23.077-17.049,3.6-32.1-.608-45.033-12.425-6.057-5.535-12.374-10.779-17.366-17.381-4.968-6.569-8.279-13.757-8.379-22.125-.028-2.3-.766-2.958-3.11-3.7-4.9-1.546-9-4.891-13.184-7.87a122.584,122.584,0,0,1-21.121-18.985,6.339,6.339,0,0,1-1.685-5.191,322.023,322.023,0,0,0-1.873-70.791c-.852-6.075-.847-6.1,5.071-6.72,5.112-.54,10.226-1.116,15.3-1.926,3.032-.484,4.921.231,6.754,2.949,9.641,14.3,20.878,27.323,32.491,40.063,12.964,14.222,29.37,22.055,47.637,26.436a81.49,81.49,0,0,1,40.491,22.866C2672.77,1172.829,2666.958,1202.186,2652.965,1215.662Z" transform="translate(-1776.63 -207.538)"/><path class="cls-4" d="M2560.647,1306.666c-4.231,1.381-8.554,2.531-12.676,4.182-21.427,8.584-32.647,24.774-35.435,47.427a84.548,84.548,0,0,0,.062,21.566c-21.157-9.147-41.766-19.507-63.1-28.269-22.222-9.126-44.736-17.419-67.63-24.677-12.317-3.9-16.509-10.734-14.814-23.556.952-7.2,1.911-14.239,6.908-20.138,1.179,2.758-2.429,6.4.446,7.66,3.5,1.527,4.519-3.675,7.382-4.829,7.157.194,14.287,1.04,21.467.734a87.874,87.874,0,0,1,11.031.025c7.716.644,14.609-.818,20.066-6.74,2.51.159,5.554,2.831,7.034-1.734.426-1.314,1.643-.227,2.453.036,37.487,12.2,76.082,19.742,114.664,27.345A10.256,10.256,0,0,1,2560.647,1306.666Z" transform="translate(-1776.63 -207.538)"/><path class="cls-5" d="M2492.778,459.306a220.55,220.55,0,0,1,24.651-21.907,427.083,427.083,0,0,1,58.357-37.6,53.171,53.171,0,0,1,11.58-4.666c7.094-1.847,10.7-.362,14.219,6.289,4.355,8.225,6.315,17.237,7.424,26.307,2.323,19,4.7,38.041,3.916,57.242a152.525,152.525,0,0,1-5.72,36.757,281.169,281.169,0,0,0-53.722-38.175A287.283,287.283,0,0,0,2492.778,459.306Z" transform="translate(-1776.63 -207.538)"/><path class="cls-5" d="M2166.1,536.583a395.312,395.312,0,0,0-88.8,104.343,120.181,120.181,0,0,1-9.326-21.355c-7.057-21.982-15.1-43.675-20.113-66.277a96.7,96.7,0,0,1-2.694-24.375c.385-11.041,4.791-15.333,15.8-15.541,10.38-.2,20.49,1.722,30.524,3.945C2116.2,522.8,2140.9,528.317,2166.1,536.583Z" transform="translate(-1776.63 -207.538)"/><path class="cls-3" d="M2043.816,933.992a96.132,96.132,0,0,1-16.166,51.68c-12.331,18.92-28.087,33.63-50.392,39.584-19.069,5.091-36.273.342-50.077-13.508-5.8-5.822-10.752-12.991-12.628-21.72-.741-3.453.189-4.508,2.975-5.615q42.3-16.806,84.542-33.74Z" transform="translate(-1776.63 -207.538)"/><path class="cls-6" d="M2194.1,1181.911c3.2.788,3.989,4.016,5.909,6.055,16.3,17.3,36.293,28.853,57.89,38.065a243.585,243.585,0,0,0,60.293,17.337,188.262,188.262,0,0,0,51.66.581,195.3,195.3,0,0,0,67.455-21.162,121.831,121.831,0,0,0,15.09-9.414c1.049-.771,1.932-1.719,3.378-1.535-21.058,26.48-47.993,43.82-81.062,51-34.874,7.568-69.231,5.888-102.8-7.182-2.754-1.073-6.569-.383-9.6.5-2.681.78-1.1,2.839.246,4.015,3.187,2.789,7.117,4.322,10.933,5.979,2.386,1.036,3.227,1.823,1.182,4.283-6.358,7.648-7.447,16.823-6.972,26.35-2.35-4.463-6.509-4.1-10.754-4.687a85.916,85.916,0,0,1-31.287-10.737c-1.529-.882-2.982-1.958-3.3-3.918,9.239-7.167,15.315-16.327,17.106-27.986.462-3.007,1.435-3.466,3.859-2.021a7.082,7.082,0,0,0,1.377.413c1.8.607,3.886,3.2,5.416.619,1.6-2.694-1.1-4.674-3.067-5.708-6.249-3.294-12.54-6.479-18.185-10.77C2211.87,1219.056,2199.928,1202.606,2194.1,1181.911Z" transform="translate(-1776.63 -207.538)"/><path class="cls-4" d="M2222.366,1277.435a72.434,72.434,0,0,0,37.557,13.445c4.5.349,7.678.594,7.789,5.9.589,1.9,1.653,3.137,3.854,2.623,2.5-.584,4.535-1.814,4.96-4.56.306-1.973.282-4,.471-7.069a22.282,22.282,0,0,1,2.972,17.27,35.666,35.666,0,0,1-9.4,18.124c-15.356,15.28-30.046,31.159-44.236,47.515-2.44-10.049-5.906-19.607-12.453-27.855-12.227-15.4-29.03-22.1-47.63-25.732-6.834-1.335-13.779-.025-20.547-1.538Z" transform="translate(-1776.63 -207.538)"/><path class="cls-7" d="M2285.426,513.312c-1.178.132-1.156-1.071-1.419-1.916-3.1-9.953-6.092-19.939-9.289-29.859-.914-2.839.867-3.213,2.706-3.838q37.086-12.617,74.169-25.242c12.435-4.234,24.912-8.354,37.272-12.8,2.943-1.058,3.839-.382,4.682,2.363,2.773,9.027,5.611,18.043,8.79,26.932,1.13,3.159.152,3.957-2.62,4.9q-45.075,15.278-90.07,30.79c-7.12,2.448-14.171,5.1-21.255,7.652C2287.489,512.62,2286.577,512.918,2285.426,513.312Z" transform="translate(-1776.63 -207.538)"/><path class="cls-7" d="M2300.841,558.4c-1.618.573-1.8-.748-2.262-1.722-4.059-8.6-5.945-17.929-8.97-26.876-.913-2.7,1.617-2.338,2.809-2.772,19.722-7.182,39.5-14.206,59.22-21.4q25.965-9.474,51.808-19.277c3.085-1.174,4.389-.879,5.449,2.466,2.838,8.959,6.053,17.8,9.164,26.67.64,1.823,1.142,2.994-1.556,3.865-38.269,12.353-76.333,25.319-114.3,38.574C2301.75,558.088,2301.3,558.244,2300.841,558.4Z" transform="translate(-1776.63 -207.538)"/><path class="cls-7" d="M2386.979,422.151c.237,2.965-2.094,2.713-3.542,3.223-21.164,7.447-42.367,14.787-63.528,22.245-15.272,5.383-30.542,10.783-45.711,16.448-3.765,1.406-4.857.344-5.838-3.181-2.273-8.175-4.76-16.31-7.639-24.288-1.263-3.5.028-4.423,2.9-5.382q40.371-13.488,80.695-27.119c9.729-3.274,19.5-6.436,29.16-9.9,2.763-.992,4-.676,4.919,2.217C2381.16,405.114,2384.156,413.741,2386.979,422.151Z" transform="translate(-1776.63 -207.538)"/><path class="cls-7" d="M2306.933,569.919,2419.278,532.1c3.88,21.246-14.359,49.692-36.734,59.051C2349.215,605.09,2321.232,589.573,2306.933,569.919Z" transform="translate(-1776.63 -207.538)"/><path class="cls-7" d="M2257.509,417.283a58.5,58.5,0,0,1,47.858-61.448c24.322-4.518,44.692,2.906,61.245,21.147,1.64,1.807,3.165,3.146-.746,4.439q-53.63,17.724-107.168,35.721A6.915,6.915,0,0,1,2257.509,417.283Z" transform="translate(-1776.63 -207.538)"/><path class="cls-6" d="M2453.6,958.245c-10.927,1.3-21.879.51-32.777-.087a339.556,339.556,0,0,1-62.062-9.081c5.958-.848,10.839-1.531,15.717-2.239,5.175-.751,10.244.134,15.365.758a174.107,174.107,0,0,0,72.458-6.516C2463.435,947.792,2460.019,954.53,2453.6,958.245Z" transform="translate(-1776.63 -207.538)"/><path class="cls-6" d="M2434.353,1280.051c-1.89,5.741-6.58,7.832-11.888,8-10.776.338-21.57.136-32.356.075a19.1,19.1,0,0,1-8.32-2.093c.566-6.8,4.887-9.114,11.048-10.435a114.927,114.927,0,0,0,29.448-11.25c2.917-1.542,3.823-1.432,4.443,2.194A22.432,22.432,0,0,0,2434.353,1280.051Z" transform="translate(-1776.63 -207.538)"/><path class="cls-8" d="M2453.6,958.245a27.8,27.8,0,0,0,8.7-17.165l10.262-3.687q1.623,5.005,3.245,10.012c.971,3.016,1.928,6.036,3.059,9.575C2470.325,957.512,2462.034,958.882,2453.6,958.245Z" transform="translate(-1776.63 -207.538)"/><path class="cls-1" d="M2418.972,914.224c-28.485.031-51.16-7.681-73.091-19.472-32.5-17.475-60.039-40.294-80.844-70.814-4.441-6.515-10.572-11.064-15.642-16.779-1.6-1.8-3.984-3.481-2.531-6.133,1.464-2.674,4.345-1.2,6.642-1.236a3.1,3.1,0,0,1,1.766.641c17.8,13.454,38.118,10.267,58.061,8.437,12.48-1.145,24.439-4.931,36.391-8.778,26.085-8.4,51.037-19.708,76.727-29.088,25.41-9.278,51.718-15.121,78.333-19.633,8.238-1.4,16.566-2.259,24.808-3.635,9.218-1.54,15.4-6.834,18.154-15.856.574-1.884,1.18-3.365,3.543-2.869,2.064.433,2.787,1.767,2.927,3.8a17.807,17.807,0,0,1-2.313,9.232c-3.485,6.985-8.653,12.445-15.985,15.35-2.671,1.058-3.616,2.516-3.884,5.193a268.767,268.767,0,0,1-32.479,103.536,93.765,93.765,0,0,1-46.65,42.262C2440.978,913.449,2428.2,913.741,2418.972,914.224Z" transform="translate(-1776.63 -207.538)"/><path class="cls-1" d="M2454.575,645.554a152.144,152.144,0,0,1,6.268-49.925c3.746-12.891,7.807-25.446,16.847-35.8,6-6.867,12.811-12.766,21.1-16.537,8.616-3.922,18.1-4.277,26.994-2.2,39.237,9.161,65.281,33.589,78.6,71.268,8.319,23.541,6.7,46.787-5.922,68.751-18.563,32.3-56.653,46.129-91.945,33.818-22.78-7.945-39.352-22.561-49.068-44.625-2.392-5.432-2.249-11.617-2.827-17.516C2454.379,650.4,2454.575,647.968,2454.575,645.554Z" transform="translate(-1776.63 -207.538)"/><path class="cls-1" d="M2234.552,679.208c-29.887.046-53.588,11.056-71.621,33.923a15.5,15.5,0,0,1-1.153,1.542c-1.485,1.457-2.3,4.612-5.043,3.338-2.584-1.2-2.132-4.014-1.689-6.464.587-3.253,2.379-5.951,4.048-8.678,19.156-31.313,55.937-45.685,92.922-36.24,35.091,8.961,60.564,29.877,76.777,62.18.988,1.969,2.537,4.446-.328,5.823-2.609,1.253-4.309,0-5.983-2.822-5.7-9.617-13.349-17.695-21.939-24.827C2281.118,690.854,2259.053,681.046,2234.552,679.208Z" transform="translate(-1776.63 -207.538)"/><path class="cls-9" d="M2414.554,905.213a122.083,122.083,0,0,1-60.931-17.343c-14.495-8.609-29.754-15.954-42.853-26.823-2.666-2.212-3.49-2.866-.468-6.166,8.668-9.468,17.054-19.421,18.618-33.012.221-1.927,1.067-2.571,2.975-2.992,29.663-6.549,57.077-19.266,84.787-31.153a9.884,9.884,0,0,1,6.831-.758,88.675,88.675,0,0,1,25.879,11.4c20.987,13.218,33.368,32.221,38.549,56.218.891,4.125.781,8.318.811,12.5.014,1.921-.99,3.248-2.15,4.66a95.906,95.906,0,0,1-36.983,27.994C2438.707,904.352,2426.846,905.04,2414.554,905.213Z" transform="translate(-1776.63 -207.538)"/><path class="cls-10" d="M2428.172,782.654c3.55-2.423,7.374-3.377,11.261-4.317,8.555-2.069,17.062-4.338,25.6-6.489,2.009-.506,3.5-.72,5.069,1.727,7.393,11.511,17.624,20.348,28.633,28.183,6.149,4.376,8.567,3.645,13.479-2.167,1.621-1.918,2.949-4.083,4.922-5.922-5.326,22.351-9.861,44.917-21.595,66.29C2493.649,825.789,2463.251,790.176,2428.172,782.654Z" transform="translate(-1776.63 -207.538)"/><path class="cls-11" d="M2517.607,768.378c-.5,9.041-5.115,16.325-10.425,23.186-1.779,2.3-4.585,2.021-6.972.393a83.812,83.812,0,0,1-19.257-17.93c-2.768-3.58-1.926-5.844,2.4-6.7,9.72-1.924,19.487-3.607,29.249-5.314C2518.043,761.062,2517.678,764.835,2517.607,768.378Z" transform="translate(-1776.63 -207.538)"/><path class="cls-12" d="M2281.4,826.046c-.476-3.193,1.511-3.346,3.852-3.277a178.19,178.19,0,0,0,30.689-1.539c2.259-.326,2.579.676,2.21,2.35-2.168,9.817-8.041,17.234-15.493,23.583a3.051,3.051,0,0,1-4.007.088,58.628,58.628,0,0,1-16.949-19.33A5.676,5.676,0,0,1,2281.4,826.046Z" transform="translate(-1776.63 -207.538)"/><path class="cls-11" d="M2461.217,646.286c-.638-20.129,4.489-39.176,11.157-57.847,3.461-9.689,9.687-17.667,17.437-24.5,15.53-13.68,33.452-15.047,51.437-7.651,25.156,10.346,45.487,27.581,53.52,54.149,8.854,29.278,6.91,58.359-16.145,81.7-15.311,15.5-35.38,19.986-56.484,18.037-25.71-2.374-43.686-16.96-56.646-38.614C2460.723,663.6,2461.562,654.883,2461.217,646.286Z" transform="translate(-1776.63 -207.538)"/><path class="cls-1" d="M2512.507,597.465c5.005,5.723,7.371,12.863,10.2,19.679,7.952,19.182,15.769,38.446,18.4,59.287a73.621,73.621,0,0,1-.032,17.3c-.425,3.866-2.144,3.769-4.585,1.551a29.566,29.566,0,0,1-6.456-8.36c-14.733-28.759-24.966-58.926-28.114-91.262a23.572,23.572,0,0,1-.052-4.34c.134-1.5-.594-3.528,1.372-4.222,1.6-.565,2.623.983,3.573,1.986,2.385,2.522,5.115,4.844,5.839,8.518-4.01,1.708-4.749,4.711-3.572,8.625,1.645,5.473,2.91,11.094,6.644,16.068,1.893-1.639,1.516-3.455,1.12-5.014-1.333-5.253-1.505-10.8-4.046-15.755C2512.149,600.272,2511.474,598.9,2512.507,597.465Z" transform="translate(-1776.63 -207.538)"/><path class="cls-13" d="M2512.507,597.465c3.806,7.094,4.674,14.969,5.951,22.72.244,1.479.626,3.537-1.266,4.225-1.937.7-2.848-1.182-3.559-2.5a54.973,54.973,0,0,1-6.342-19.427c-.484-3.891,1.319-5.725,5.355-4.88Z" transform="translate(-1776.63 -207.538)"/></svg>